<?xml version="1.0" encoding="UTF-8" standalone="no"?>
<!DOCTYPE svg PUBLIC "-//W3C//DTD SVG 1.1//EN" "http://www.w3.org/Graphics/SVG/1.1/DTD/svg11.dtd">
<svg width="100%" height="100%" viewBox="0 0 504 93" version="1.1" xmlns="http://www.w3.org/2000/svg" xmlns:xlink="http://www.w3.org/1999/xlink" xml:space="preserve" xmlns:serif="http://www.serif.com/" style="fill-rule:evenodd;clip-rule:evenodd;stroke-linejoin:round;stroke-miterlimit:2;">
    <g transform="matrix(1,0,0,1,-175.76,-633.094)">
        <path d="M356.238,724.23L356.238,634.63L391.822,634.63C397.966,634.63 403.513,635.739 408.462,637.958C413.411,640.176 417.315,643.376 420.174,647.558C423.033,651.739 424.462,656.731 424.462,662.534C424.462,668.251 423.075,673.222 420.302,677.446C417.529,681.67 413.689,684.934 408.782,687.238C403.875,689.542 398.222,690.694 391.822,690.694L376.462,690.694L376.462,724.23L356.238,724.23ZM376.462,673.414L391.31,673.414C396.089,673.414 399.395,672.326 401.23,670.15C403.065,667.974 403.982,665.435 403.982,662.534C403.982,659.803 403.065,657.35 401.23,655.174C399.395,652.998 396.089,651.91 391.31,651.91L376.462,651.91L376.462,673.414ZM434.142,724.23L434.142,634.63L454.366,634.63L454.366,724.23L434.142,724.23ZM175.792,674.84C176.298,667.816 177.926,661.431 180.677,655.686C184.047,648.646 189.018,643.12 195.589,639.11C202.159,635.099 210.181,633.094 219.653,633.094C230.746,633.094 239.877,635.888 247.045,641.478C254.213,647.067 260.229,653.979 260.229,665.46C260.229,676.941 242.274,679.33 223.726,679.43C233.164,677.525 238.039,670.512 238.039,666.222C238.039,661.931 236.002,657.769 231.873,655.11C228.069,652.659 224.389,651.526 219.269,651.526C214.831,651.526 210.863,652.571 207.365,654.662C203.866,656.752 201.135,659.867 199.173,664.006C198.842,664.702 198.54,665.429 198.265,666.187L175.792,674.84ZM198.108,692.613C198.406,693.482 198.74,694.314 199.109,695.11C201.029,699.248 203.738,702.363 207.237,704.454C210.735,706.544 214.746,707.59 219.269,707.59C224.389,707.59 228.591,706.502 231.877,704.326C235.162,702.15 238.085,697.373 238.085,690.046L260.229,690.046C260.229,698.907 254.094,712.203 247.045,717.574C239.877,723.035 230.746,725.766 219.653,725.766C210.351,725.766 202.415,723.782 195.845,719.814C189.274,715.846 184.261,710.406 180.805,703.494C177.915,697.715 176.234,691.22 175.76,684.009L198.108,692.613ZM281.288,666.192L292.741,634.63L315.909,634.63L348.549,724.23L327.173,724.23L320.901,705.67L287.621,705.67L281.221,724.23L260.229,724.23L272.816,689.542L315.397,689.542L304.133,656.902L301.036,666.192C297.673,677.548 285.434,679.33 266.886,679.43C276.324,677.525 280.029,670.304 281.288,666.192ZM222.666,662.137L210.271,679.431L222.666,696.722L177.75,679.431L222.666,662.137ZM210.29,671.706L190.224,679.432L210.29,687.153L206.623,682.043C205.509,680.486 205.509,678.381 206.623,676.824L210.29,671.706ZM490.39,724.23L490.39,652.038L464.662,652.038L464.662,634.63L536.342,634.63L536.342,652.038L510.486,652.038L510.486,724.23L490.39,724.23ZM527.894,724.23L560.406,634.63L583.574,634.63L616.214,724.23L594.838,724.23L588.566,705.67L555.286,705.67L548.886,724.23L527.894,724.23ZM560.918,689.542L583.062,689.542L571.798,656.902L560.918,689.542ZM622.23,724.23L622.23,634.63L642.454,634.63L642.454,706.694L679.062,706.694L679.062,724.23L622.23,724.23Z"/>
    </g>
</svg>
