<?xml version="1.0" encoding="UTF-8" standalone="no"?>
<!-- Created with Inkscape (http://www.inkscape.org/) -->

<svg
   width="70.208145mm"
   height="88.514336mm"
   viewBox="0 0 70.208145 88.514336"
   version="1.1"
   id="svg1"
   inkscape:version="1.3 (0e150ed, 2023-07-21)"
   sodipodi:docname="new logo.svg"
   xmlns:inkscape="http://www.inkscape.org/namespaces/inkscape"
   xmlns:sodipodi="http://sodipodi.sourceforge.net/DTD/sodipodi-0.dtd"
   xmlns="http://www.w3.org/2000/svg"
   xmlns:svg="http://www.w3.org/2000/svg">
  <sodipodi:namedview
     id="namedview1"
     pagecolor="#ffffff"
     bordercolor="#999999"
     borderopacity="1"
     inkscape:showpageshadow="0"
     inkscape:pageopacity="0"
     inkscape:pagecheckerboard="0"
     inkscape:deskcolor="#d1d1d1"
     inkscape:document-units="mm"
     inkscape:zoom="0.48965351"
     inkscape:cx="392.11401"
     inkscape:cy="479.93121"
     inkscape:window-width="1512"
     inkscape:window-height="853"
     inkscape:window-x="0"
     inkscape:window-y="38"
     inkscape:window-maximized="0"
     inkscape:current-layer="layer1"
     showgrid="false" />
  <defs
     id="defs1">
    <inkscape:path-effect
       effect="powerstroke"
       id="path-effect7"
       is_visible="true"
       lpeversion="1.3"
       scale_width="1"
       interpolator_type="Linear"
       interpolator_beta="0.2"
       start_linecap_type="round"
       end_linecap_type="round"
       offset_points="0,10.06234 | 5,1.3778493"
       linejoin_type="round"
       miter_limit="4"
       not_jump="false"
       sort_points="true"
       message="&lt;b&gt;Ctrl + click&lt;/b&gt; on existing node and move it" />
  </defs>
  <g
     inkscape:label="Layer 1"
     inkscape:groupmode="layer"
     id="layer1"
     transform="translate(-84.675272,-105.04382)">
    <g
       id="g7"
       style="display:none">
      <path
         style="display:inline;fill:none;stroke:#000000;stroke-width:1.32292;stroke-linecap:round;stroke-opacity:1"
         d="M 43.627169,94.013477 H 171.43634"
         id="path1" />
      <path
         style="display:inline;fill:none;stroke:#000000;stroke-width:1.32292;stroke-linecap:round;stroke-opacity:1"
         d="M 37.995086,167.70952 170.93121,131.96395"
         id="path2" />
      <path
         style="fill:none;stroke:#000000;stroke-width:1.32292;stroke-linecap:round;stroke-opacity:1"
         d="M 43.627169,94.013477 V 166.19509"
         id="path4" />
      <path
         style="fill:none;stroke:#000000;stroke-width:1.32292;stroke-linecap:round;stroke-opacity:1"
         d="M 170.93121,131.96395 V 94.013477"
         id="path5" />
      <path
         style="fill:none;stroke:#000000;stroke-width:1.32292;stroke-linecap:round;stroke-opacity:1"
         d="M 43.627169,130.10428 170.93121,112.98871"
         id="path6" />
    </g>
    <path
       style="fill:#000000;fill-rule:nonzero;stroke:none;stroke-width:1.32292;stroke-linecap:round;stroke-opacity:1"
       d="m 61.006661,166.7397 9.058657,-37.36006 6.662061,27.55334 a 6.7036232,6.4301966 47.849214 0 0 12.631753,0.89257 l 6.111154,-19.68959 4.618044,12.95062 a 3.2199518,2.9967387 43.247824 0 0 5.97456,0.0317 l 5.31165,-23.6762 a 1.3778493,1.3778493 90 0 0 -2.63878,-0.79416 l -4.88376,12.81995 -4.041372,-17.99642 a 4.6936918,4.9891247 48.724627 0 0 -9.216689,-0.31816 L 85.673636,132.7746 78.219457,92.280891 A 8.2079011,8.4344213 47.274079 0 0 62.034533,91.858694 l -20.46682,69.672346 a 10.06234,10.06234 90 0 0 19.438948,5.20866 z"
       id="path3"
       sodipodi:nodetypes="cccccc"
       transform="translate(43.45043,19.360443)"
       inkscape:original-d="m 51.287187,164.13537 18.789105,-70.121893 13.095383,61.548383 11.978559,-32.74162 7.930056,27.40043 6.97486,-23.17565"
       inkscape:path-effect="#path-effect7"
       inkscape:label="original" />
    <path
       style="fill:#00ffae;fill-opacity:1;stroke-width:1.32292;stroke-linecap:round"
       d="m 37.52047,99.388116 9.058657,-37.36006 6.662061,27.55334 a 6.7036232,6.4301966 47.849214 0 0 12.631753,0.89257 l 6.111154,-19.68959 4.618044,12.95062 a 3.2199518,2.9967387 43.247824 0 0 5.97456,0.0317 l 5.31165,-23.6762 a 1.3778493,1.3778493 0 0 0 -2.63878,-0.79416 l -4.88376,12.81995 -4.041372,-17.99642 a 4.6936918,4.9891247 48.724627 0 0 -9.216689,-0.31816 L 62.187445,65.423016 54.733266,24.929307 A 8.2079011,8.4344213 47.274079 0 0 38.548342,24.50711 l -20.46682,69.672346 a 10.062341,10.062341 0 0 0 19.438948,5.20866 z"
       id="path25"
       sodipodi:nodetypes="cccccc" />
  </g>
</svg>
