<?xml version="1.0" encoding="UTF-8" standalone="no"?>
<!-- Created with Inkscape (http://www.inkscape.org/) -->

<svg
   width="86.081879mm"
   height="96.978935mm"
   viewBox="0 0 86.081879 96.978935"
   version="1.1"
   id="svg1"
   inkscape:version="1.3 (0e150ed, 2023-07-21)"
   sodipodi:docname="new logo.svg"
   xmlns:inkscape="http://www.inkscape.org/namespaces/inkscape"
   xmlns:sodipodi="http://sodipodi.sourceforge.net/DTD/sodipodi-0.dtd"
   xmlns="http://www.w3.org/2000/svg"
   xmlns:svg="http://www.w3.org/2000/svg">
  <sodipodi:namedview
     id="namedview1"
     pagecolor="#ffffff"
     bordercolor="#999999"
     borderopacity="1"
     inkscape:showpageshadow="0"
     inkscape:pageopacity="0"
     inkscape:pagecheckerboard="0"
     inkscape:deskcolor="#d1d1d1"
     inkscape:document-units="mm"
     inkscape:zoom="0.44268218"
     inkscape:cx="379.50477"
     inkscape:cy="155.86803"
     inkscape:window-width="1512"
     inkscape:window-height="853"
     inkscape:window-x="0"
     inkscape:window-y="38"
     inkscape:window-maximized="0"
     inkscape:current-layer="layer1"
     showgrid="false" />
  <defs
     id="defs1" />
  <g
     inkscape:label="Layer 1"
     inkscape:groupmode="layer"
     id="layer1"
     transform="translate(-13.770462,-11.981783)">
    <path
       id="path3088"
       style="color:#000000;display:none;fill:#000000;fill-opacity:1;-inkscape-stroke:none"
       d="m 30.810666,11.082385 c -9.87776,0 -15.982004,5.56354 -18.60352,10.80657 -2.6215167,5.24304 -2.5647017,10.36113 -2.5647017,10.36113 v 25.398447 h 8.4671817 v -16.93127 h 25.4 v 16.93127 h 8.467178 v -14.81615 c 0,0 0.0451,-2.65804 1.55857,-5.30665 1.51349,-2.64862 3.90847,-5.275647 11.1404,-5.275647 h 4.23437 v 25.398447 h 8.46718 V 23.783415 h -12.70155 c -5.62107,0 -10.02079,1.60638 -13.25862,3.88245 -0.36948,-1.71063 -0.98058,-3.7321 -2.002978,-5.7769 -2.62151,-5.24304 -8.72576,-10.80658 -18.60351,-10.80658 z m 42.332808,5.2e-4 a 4.2333331,4.2333331 0 0 0 -4.23333,4.23333 4.2333331,4.2333331 0 0 0 4.23333,4.23333 4.2333331,4.2333331 0 0 0 4.23333,-4.23333 4.2333331,4.2333331 0 0 0 -4.23333,-4.23333 z m -42.332808,8.46615 c 7.05554,0 9.41749,2.90314 11.0293,6.12675 1.61181,3.22362 1.66966,6.57428 1.66966,6.57428 h -25.4 c 0,0 0.0579,-3.35066 1.66967,-6.57428 1.61181,-3.22361 3.97582,-6.12675 11.03137,-6.12675 z" />
    <g
       id="g7"
       style="display:none">
      <path
         style="display:inline;fill:none;stroke:#000000;stroke-width:1.32292;stroke-linecap:round;stroke-opacity:1"
         d="M 43.627169,94.013477 H 171.43634"
         id="path1" />
      <path
         style="display:inline;fill:none;stroke:#000000;stroke-width:1.32292;stroke-linecap:round;stroke-opacity:1"
         d="M 37.995086,167.70952 170.93121,131.96395"
         id="path2" />
      <path
         style="fill:none;stroke:#000000;stroke-width:1.32292;stroke-linecap:round;stroke-opacity:1"
         d="M 43.627169,94.013477 V 166.19509"
         id="path4" />
      <path
         style="fill:none;stroke:#000000;stroke-width:1.32292;stroke-linecap:round;stroke-opacity:1"
         d="M 170.93121,131.96395 V 94.013477"
         id="path5" />
      <path
         style="fill:none;stroke:#000000;stroke-width:1.32292;stroke-linecap:round;stroke-opacity:1"
         d="M 43.627169,130.10428 170.93121,112.98871"
         id="path6" />
    </g>
    <path
       style="fill:#4c00ff;fill-opacity:1;stroke-width:1.32292;stroke-linecap:round"
       d="m 33.55172,101.50478 9.058657,-37.360057 6.662061,27.55334 a 6.7036232,6.4301966 47.849214 0 0 12.631753,0.89257 l 6.111154,-19.68959 4.618044,12.95062 a 3.2199518,2.9967387 43.247824 0 0 5.97456,0.0317 l 5.31165,-23.6762 a 1.3778493,1.3778493 0 0 0 -2.63878,-0.79416 l -4.88376,12.81995 -4.041372,-17.99642 a 4.6936918,4.9891247 48.724627 0 0 -9.216689,-0.31816 L 58.218695,67.539683 50.764516,27.045974 A 8.2079011,8.4344213 47.274079 0 0 34.579592,26.623777 l -20.46682,69.672346 a 10.062341,10.062341 0 0 0 19.438948,5.208657 z"
       id="path26"
       sodipodi:nodetypes="cccccc" />
    <path
       style="fill:#00ffae;fill-opacity:1;stroke-width:1.32292;stroke-linecap:round"
       d="m 37.52047,99.388116 9.058657,-37.36006 6.662061,27.55334 a 6.7036232,6.4301966 47.849214 0 0 12.631753,0.89257 l 6.111154,-19.68959 4.618044,12.95062 a 3.2199518,2.9967387 43.247824 0 0 5.97456,0.0317 l 5.31165,-23.6762 a 1.3778493,1.3778493 0 0 0 -2.63878,-0.79416 l -4.88376,12.81995 -4.041372,-17.99642 a 4.6936918,4.9891247 48.724627 0 0 -9.216689,-0.31816 L 62.187445,65.423016 54.733266,24.929307 A 8.2079011,8.4344213 47.274079 0 0 38.548342,24.50711 l -20.46682,69.672346 a 10.062341,10.062341 0 0 0 19.438948,5.20866 z"
       id="path25"
       sodipodi:nodetypes="cccccc" />
    <path
       style="fill:#fff100;fill-opacity:1;stroke-width:1.32292;stroke-linecap:round"
       d="m 41.48922,97.271449 9.058657,-37.36006 6.662061,27.55334 a 6.7036232,6.4301966 47.849214 0 0 12.631753,0.89257 l 6.111154,-19.68959 4.618044,12.95062 a 3.2199518,2.9967387 43.247824 0 0 5.97456,0.0317 l 5.31165,-23.6762 a 1.3778493,1.3778493 0 0 0 -2.63878,-0.79416 l -4.88376,12.81995 -4.041372,-17.99642 a 4.6936918,4.9891247 48.724627 0 0 -9.216689,-0.31816 L 66.156195,63.306349 58.702016,22.81264 A 8.2079011,8.4344213 47.274079 0 0 42.517092,22.390443 l -20.46682,69.672346 a 10.062341,10.062341 0 0 0 19.438948,5.20866 z"
       id="path24"
       sodipodi:nodetypes="cccccc" />
    <path
       style="fill:#ff0094;fill-opacity:1;stroke-width:1.32292;stroke-linecap:round"
       d="m 45.45797,95.683949 9.058657,-37.36006 6.662061,27.55334 a 6.7036232,6.4301966 47.849214 0 0 12.631753,0.89257 l 6.111154,-19.68959 4.618044,12.95062 a 3.2199518,2.9967387 43.247824 0 0 5.97456,0.0317 l 5.31165,-23.6762 a 1.3778493,1.3778493 0 0 0 -2.63878,-0.79416 l -4.88376,12.81995 -4.041372,-17.99642 a 4.6936918,4.9891247 48.724627 0 0 -9.216689,-0.31816 L 70.124945,61.718849 62.670766,21.22514 A 8.2079011,8.4344213 47.274079 0 0 46.485842,20.802943 l -20.46682,69.672346 a 10.062341,10.062341 0 0 0 19.438948,5.20866 z"
       id="path23"
       sodipodi:nodetypes="cccccc" />
    <path
       style="fill:#000000;stroke-width:1.32292;stroke-linecap:round"
       d="m 61.006661,166.7397 9.058657,-37.36006 6.662061,27.55334 a 6.7036232,6.4301966 47.849214 0 0 12.631753,0.89257 l 6.111154,-19.68959 4.618044,12.95062 a 3.2199518,2.9967387 43.247824 0 0 5.97456,0.0317 l 5.31165,-23.6762 a 1.3778493,1.3778493 90 0 0 -2.63878,-0.79416 l -4.88376,12.81995 -4.041372,-17.99642 a 4.6936918,4.9891247 48.724627 0 0 -9.216689,-0.31816 L 85.673636,132.7746 78.219457,92.280891 A 8.2079011,8.4344213 47.274079 0 0 62.034533,91.858694 l -20.46682,69.672346 a 10.062341,10.062341 90 0 0 19.438948,5.20866 z"
       id="path15"
       sodipodi:nodetypes="cccccc"
       transform="translate(-11.579941,-73.701585)" />
  </g>
</svg>
