<?xml version="1.0" encoding="UTF-8" standalone="no"?>
<!DOCTYPE svg PUBLIC "-//W3C//DTD SVG 1.1//EN" "http://www.w3.org/Graphics/SVG/1.1/DTD/svg11.dtd">
<svg width="100%" height="100%" viewBox="0 0 245 275" version="1.1" xmlns="http://www.w3.org/2000/svg" xmlns:xlink="http://www.w3.org/1999/xlink" xml:space="preserve" xmlns:serif="http://www.serif.com/" style="fill-rule:evenodd;clip-rule:evenodd;stroke-linejoin:round;stroke-miterlimit:2;">
    <g id="Layer-1" serif:id="Layer 1" transform="matrix(1,0,0,1,-39.0344,-33.9641)">
        <path id="path26" d="M95.107,287.73L120.785,181.828L139.67,259.932C140.435,263.095 141.997,266.04 144.203,268.477C151.199,276.206 163.055,277.044 170.469,270.333C172.806,268.217 174.532,265.505 175.476,262.462L192.799,206.649L205.89,243.359C206.399,244.786 207.254,246.087 208.375,247.142C212.022,250.572 217.65,250.602 220.843,247.208C221.824,246.165 222.507,244.871 222.826,243.449L237.882,176.335C237.991,175.972 238.046,175.595 238.046,175.216C238.046,173.074 236.283,171.311 234.14,171.311C232.424,171.311 230.9,172.442 230.402,174.084L216.559,210.424L205.103,159.411C204.634,157.321 203.662,155.403 202.268,153.815C197.453,148.329 188.693,148.027 182.862,153.145C181.174,154.626 179.842,156.465 178.977,158.509L165.029,191.451L143.899,76.666C143.114,72.401 141.152,68.468 138.232,65.307C129.572,55.93 114.518,55.538 104.883,64.437C101.634,67.437 99.258,71.257 98.021,75.469L40.005,272.965C39.361,275.371 39.034,277.851 39.034,280.342C39.034,295.989 51.91,308.865 67.558,308.865C80.425,308.865 91.774,300.158 95.107,287.73Z" style="fill:rgb(76,0,255);fill-rule:nonzero;"/>
        <path id="path25" d="M106.357,281.73L132.035,175.828L150.92,253.932C151.685,257.095 153.247,260.04 155.453,262.477C162.449,270.206 174.305,271.044 181.719,264.333C184.056,262.217 185.782,259.505 186.726,256.462L204.049,200.649L217.14,237.359C217.649,238.786 218.504,240.087 219.625,241.142C223.272,244.572 228.9,244.602 232.093,241.208C233.074,240.165 233.757,238.871 234.076,237.449L249.132,170.335C249.241,169.972 249.296,169.595 249.296,169.216C249.296,167.074 247.533,165.311 245.39,165.311C243.674,165.311 242.15,166.442 241.652,168.084L227.809,204.424L216.353,153.411C215.884,151.321 214.912,149.403 213.518,147.815C208.703,142.329 199.943,142.027 194.112,147.145C192.424,148.626 191.092,150.465 190.227,152.509L176.279,185.451L155.149,70.666C154.364,66.401 152.402,62.468 149.482,59.307C140.822,49.93 125.768,49.538 116.133,58.437C112.884,61.437 110.508,65.257 109.271,69.469L51.255,266.965C50.61,269.373 50.283,271.855 50.283,274.348C50.283,289.995 63.159,302.871 78.806,302.871C91.675,302.871 103.026,294.161 106.357,281.73Z" style="fill:rgb(0,255,174);fill-rule:nonzero;"/>
        <path id="path24" d="M117.607,275.73L143.285,169.828L162.17,247.932C162.935,251.095 164.497,254.04 166.703,256.477C173.699,264.206 185.555,265.044 192.969,258.333C195.306,256.217 197.032,253.505 197.976,250.462L215.299,194.649L228.39,231.359C228.899,232.786 229.754,234.087 230.875,235.142C234.522,238.572 240.15,238.602 243.343,235.208C244.324,234.165 245.007,232.871 245.326,231.449L260.382,164.335C260.491,163.972 260.546,163.595 260.546,163.216C260.546,161.074 258.783,159.311 256.64,159.311C254.924,159.311 253.4,160.442 252.902,162.084L239.059,198.424L227.603,147.411C227.134,145.321 226.162,143.403 224.768,141.815C219.953,136.329 211.193,136.027 205.362,141.145C203.674,142.626 202.342,144.465 201.477,146.509L187.529,179.451L166.399,64.666C165.614,60.401 163.652,56.468 160.732,53.307C152.072,43.93 137.018,43.538 127.383,52.437C124.134,55.437 121.758,59.257 120.521,63.469L62.505,260.965C61.86,263.373 61.533,265.855 61.533,268.348C61.533,283.995 74.409,296.871 90.056,296.871C102.925,296.871 114.276,288.161 117.607,275.73Z" style="fill:rgb(255,241,0);fill-rule:nonzero;"/>
        <path id="path23" d="M128.857,271.23L154.535,165.328L173.42,243.432C174.185,246.595 175.747,249.54 177.953,251.977C184.949,259.706 196.805,260.544 204.219,253.833C206.556,251.717 208.282,249.005 209.226,245.962L226.549,190.149L239.64,226.859C240.149,228.286 241.004,229.587 242.125,230.642C245.772,234.072 251.4,234.102 254.593,230.708C255.574,229.665 256.257,228.371 256.576,226.949L271.632,159.835C271.741,159.472 271.796,159.095 271.796,158.716C271.796,156.574 270.033,154.811 267.89,154.811C266.174,154.811 264.65,155.942 264.152,157.584L250.309,193.924L238.853,142.911C238.384,140.821 237.412,138.903 236.018,137.315C231.203,131.829 222.443,131.527 216.612,136.645C214.924,138.126 213.592,139.965 212.727,142.009L198.779,174.951L177.649,60.166C176.864,55.901 174.902,51.968 171.982,48.807C163.322,39.43 148.268,39.038 138.633,47.937C135.384,50.937 133.008,54.757 131.771,58.969L73.755,256.465C73.11,258.873 72.783,261.355 72.783,263.848C72.783,279.495 85.659,292.371 101.306,292.371C114.175,292.371 125.526,283.661 128.857,271.23Z" style="fill:rgb(255,0,148);fill-rule:nonzero;"/>
        <g id="path15" transform="matrix(1,0,0,1,-32.825,-208.918)">
            <path d="M172.932,472.648L198.61,366.745L217.495,444.849C218.26,448.013 219.822,450.958 222.028,453.395C229.024,461.124 240.88,461.961 248.294,455.251C250.631,453.135 252.357,450.423 253.301,447.38L270.624,391.567L283.715,428.277C284.224,429.704 285.079,431.005 286.2,432.06C289.847,435.49 295.475,435.52 298.668,432.126C299.65,431.083 300.332,429.789 300.651,428.367L315.707,361.253C315.816,360.89 315.871,360.513 315.871,360.134C315.871,357.992 314.108,356.229 311.965,356.229C310.249,356.229 308.725,357.36 308.227,359.002L294.384,395.342L282.928,344.329C282.459,342.239 281.487,340.321 280.093,338.732C275.278,333.247 266.518,332.945 260.687,338.063C258.999,339.544 257.667,341.383 256.802,343.427L242.854,376.369L221.724,261.584C220.939,257.319 218.977,253.386 216.057,250.224C207.397,240.848 192.343,240.455 182.708,249.354C179.459,252.355 177.083,256.175 175.846,260.387L117.83,457.883C117.185,460.291 116.858,462.773 116.858,465.266C116.858,480.913 129.734,493.789 145.381,493.789C158.25,493.789 169.601,485.079 172.932,472.648Z" style="fill:white;fill-rule:nonzero;"/>
        </g>
    </g>
</svg>
