<?xml version="1.0" encoding="UTF-8" standalone="no"?>
<svg
   version="1.1"
   width="90"
   height="35"
   shape-rendering="crispEdges"
   id="svg465"
   sodipodi:docname="tiny witch light.svg"
   inkscape:version="1.3 (0e150ed, 2023-07-21)"
   xmlns:inkscape="http://www.inkscape.org/namespaces/inkscape"
   xmlns:sodipodi="http://sodipodi.sourceforge.net/DTD/sodipodi-0.dtd"
   xmlns="http://www.w3.org/2000/svg"
   xmlns:svg="http://www.w3.org/2000/svg">
  <defs
     id="defs465" />
  <sodipodi:namedview
     id="namedview465"
     pagecolor="#ffffff"
     bordercolor="#999999"
     borderopacity="1"
     inkscape:showpageshadow="0"
     inkscape:pageopacity="0"
     inkscape:pagecheckerboard="0"
     inkscape:deskcolor="#d1d1d1"
     showgrid="false"
     inkscape:zoom="4.2874596"
     inkscape:cx="45.831336"
     inkscape:cy="29.271413"
     inkscape:window-width="1512"
     inkscape:window-height="858"
     inkscape:window-x="0"
     inkscape:window-y="38"
     inkscape:window-maximized="1"
     inkscape:current-layer="svg465" />
  <path
     id="rect1"
     d="M 9 6 L 9 7 L 8 7 L 7 7 L 6 7 L 5 7 L 5 8 L 6 8 L 6 9 L 6 10 L 7 10 L 8 10 L 9 10 L 10 10 L 10 9 L 11 9 L 12 9 L 12 10 L 12 11 L 12 12 L 12 13 L 12 14 L 11 14 L 11 15 L 11 16 L 11 17 L 10 17 L 10 18 L 11 18 L 12 18 L 13 18 L 14 18 L 15 18 L 16 18 L 16 17 L 16 16 L 15 16 L 15 15 L 15 14 L 15 13 L 15 12 L 15 11 L 15 10 L 15 9 L 16 9 L 17 9 L 17 10 L 18 10 L 19 10 L 19 9 L 20 9 L 20 8 L 21 8 L 21 7 L 20 7 L 19 7 L 18 7 L 17 7 L 16 7 L 16 6 L 15 6 L 14 6 L 13 6 L 12 6 L 11 6 L 10 6 L 9 6 z M 42 6 L 42 7 L 41 7 L 41 8 L 42 8 L 42 9 L 43 9 L 43 10 L 44 10 L 44 11 L 44 12 L 45 12 L 45 13 L 45 14 L 45 15 L 46 15 L 46 16 L 46 17 L 47 17 L 47 18 L 48 18 L 48 17 L 48 16 L 49 16 L 49 15 L 50 15 L 50 16 L 51 16 L 51 17 L 52 17 L 52 18 L 53 18 L 53 17 L 53 16 L 53 15 L 54 15 L 54 14 L 54 13 L 54 12 L 55 12 L 55 11 L 56 11 L 56 10 L 57 10 L 58 10 L 58 9 L 59 9 L 59 8 L 58 8 L 58 7 L 57 7 L 56 7 L 55 7 L 55 8 L 54 8 L 54 9 L 54 10 L 53 10 L 53 11 L 53 12 L 52 12 L 52 13 L 52 14 L 52 15 L 51 15 L 51 14 L 51 13 L 50 13 L 50 12 L 50 11 L 50 10 L 49 10 L 49 11 L 48 11 L 48 12 L 48 13 L 48 14 L 47 14 L 47 13 L 47 12 L 47 11 L 47 10 L 46 10 L 46 9 L 46 8 L 46 7 L 45 7 L 45 6 L 44 6 L 43 6 L 42 6 z M 62 9 L 62 10 L 61 10 L 61 11 L 62 11 L 62 12 L 61 12 L 61 13 L 62 13 L 62 14 L 62 15 L 62 16 L 62 17 L 63 17 L 63 18 L 64 18 L 65 18 L 66 18 L 66 17 L 67 17 L 67 16 L 67 15 L 66 15 L 66 16 L 65 16 L 64 16 L 64 15 L 64 14 L 65 14 L 65 13 L 66 13 L 66 12 L 65 12 L 64 12 L 64 11 L 64 10 L 63 10 L 63 9 L 62 9 z M 76 9 L 76 10 L 75 10 L 75 11 L 76 11 L 76 12 L 76 13 L 76 14 L 76 15 L 76 16 L 76 17 L 75 17 L 75 18 L 76 18 L 77 18 L 78 18 L 78 17 L 78 16 L 79 16 L 79 15 L 80 15 L 80 14 L 81 14 L 81 15 L 81 16 L 81 17 L 82 17 L 82 18 L 83 18 L 84 18 L 84 17 L 84 16 L 83 16 L 83 15 L 83 14 L 83 13 L 82 13 L 82 12 L 81 12 L 80 12 L 79 12 L 79 13 L 78 13 L 78 12 L 78 11 L 78 10 L 77 10 L 77 9 L 76 9 z M 18 11 L 18 12 L 17 12 L 17 13 L 18 13 L 18 14 L 19 14 L 20 14 L 20 13 L 21 13 L 21 12 L 20 12 L 20 11 L 19 11 L 18 11 z M 22 11 L 22 12 L 22 13 L 23 13 L 23 14 L 23 15 L 23 16 L 22 16 L 22 17 L 22 18 L 23 18 L 24 18 L 24 17 L 25 17 L 25 16 L 25 15 L 25 14 L 26 14 L 27 14 L 27 15 L 28 15 L 28 16 L 28 17 L 28 18 L 29 18 L 30 18 L 30 17 L 30 16 L 30 15 L 30 14 L 29 14 L 29 13 L 28 13 L 28 12 L 27 12 L 26 12 L 25 12 L 25 13 L 24 13 L 24 12 L 24 11 L 23 11 L 22 11 z M 57 11 L 57 12 L 56 12 L 56 13 L 57 13 L 57 14 L 58 14 L 59 14 L 59 13 L 60 13 L 60 12 L 59 12 L 59 11 L 58 11 L 57 11 z M 70 11 L 70 12 L 69 12 L 69 13 L 68 13 L 68 14 L 68 15 L 68 16 L 69 16 L 69 17 L 70 17 L 70 18 L 71 18 L 72 18 L 73 18 L 73 17 L 74 17 L 74 16 L 73 16 L 72 16 L 71 16 L 71 15 L 70 15 L 70 14 L 71 14 L 71 13 L 72 13 L 73 13 L 73 14 L 74 14 L 74 13 L 74 12 L 73 12 L 73 11 L 72 11 L 71 11 L 70 11 z M 30 12 L 30 13 L 31 13 L 31 14 L 31 15 L 32 15 L 32 16 L 33 16 L 33 17 L 34 17 L 35 17 L 36 17 L 36 18 L 35 18 L 35 19 L 34 19 L 33 19 L 32 19 L 31 19 L 31 20 L 32 20 L 32 21 L 33 21 L 34 21 L 35 21 L 35 20 L 36 20 L 37 20 L 37 19 L 37 18 L 38 18 L 38 17 L 38 16 L 39 16 L 39 15 L 39 14 L 39 13 L 39 12 L 38 12 L 37 12 L 36 12 L 36 13 L 37 13 L 37 14 L 36 14 L 36 15 L 35 15 L 34 15 L 34 14 L 33 14 L 33 13 L 33 12 L 32 12 L 31 12 L 30 12 z M 18 15 L 18 16 L 18 17 L 17 17 L 17 18 L 18 18 L 19 18 L 20 18 L 21 18 L 21 17 L 21 16 L 20 16 L 20 15 L 19 15 L 18 15 z M 57 15 L 57 16 L 57 17 L 56 17 L 56 18 L 57 18 L 58 18 L 59 18 L 60 18 L 60 17 L 60 16 L 59 16 L 59 15 L 58 15 L 57 15 z M 15 22 L 15 23 L 15 24 L 15 25 L 15 26 L 15 27 L 16 27 L 16 26 L 16 25 L 17 25 L 18 25 L 18 24 L 17 24 L 16 24 L 16 23 L 16 22 L 15 22 z M 18 25 L 18 26 L 18 27 L 19 27 L 19 26 L 19 25 L 18 25 z M 18 27 L 17 27 L 16 27 L 16 28 L 17 28 L 18 28 L 18 27 z M 28 22 L 28 23 L 29 23 L 30 23 L 30 22 L 29 22 L 28 22 z M 30 23 L 30 24 L 30 25 L 29 25 L 28 25 L 28 24 L 28 23 L 27 23 L 27 24 L 27 25 L 27 26 L 27 27 L 27 28 L 28 28 L 28 27 L 28 26 L 29 26 L 30 26 L 30 27 L 30 28 L 31 28 L 31 27 L 31 26 L 31 25 L 31 24 L 31 23 L 30 23 z M 41 22 L 41 23 L 42 23 L 42 22 L 41 22 z M 42 23 L 42 24 L 42 25 L 43 25 L 43 24 L 43 23 L 42 23 z M 43 23 L 44 23 L 44 22 L 43 22 L 43 23 z M 44 23 L 44 24 L 44 25 L 44 26 L 44 27 L 44 28 L 45 28 L 45 27 L 45 26 L 45 25 L 45 24 L 45 23 L 44 23 z M 41 23 L 40 23 L 40 24 L 40 25 L 40 26 L 40 27 L 40 28 L 41 28 L 41 27 L 41 26 L 41 25 L 41 24 L 41 23 z M 55 22 L 55 23 L 55 24 L 54 24 L 53 24 L 53 25 L 54 25 L 55 25 L 55 26 L 55 27 L 56 27 L 56 26 L 56 25 L 56 24 L 56 23 L 56 22 L 55 22 z M 55 27 L 54 27 L 53 27 L 53 28 L 54 28 L 55 28 L 55 27 z M 53 27 L 53 26 L 53 25 L 52 25 L 52 26 L 52 27 L 53 27 z M 60 22 L 60 23 L 60 24 L 59 24 L 58 24 L 58 25 L 59 25 L 60 25 L 60 26 L 60 27 L 61 27 L 61 26 L 61 25 L 61 24 L 61 23 L 61 22 L 60 22 z M 60 27 L 59 27 L 58 27 L 58 28 L 59 28 L 60 28 L 60 27 z M 58 27 L 58 26 L 58 25 L 57 25 L 57 26 L 57 27 L 58 27 z M 36 23 L 36 24 L 37 24 L 37 23 L 36 23 z M 62 23 L 62 24 L 63 24 L 63 23 L 62 23 z M 20 24 L 20 25 L 20 26 L 21 26 L 21 25 L 21 24 L 20 24 z M 21 26 L 21 27 L 22 27 L 23 27 L 23 28 L 24 28 L 24 27 L 24 26 L 24 25 L 24 24 L 23 24 L 23 25 L 23 26 L 22 26 L 21 26 z M 23 28 L 22 28 L 21 28 L 21 29 L 22 29 L 23 29 L 23 28 z M 33 24 L 33 25 L 34 25 L 34 24 L 33 24 z M 34 25 L 34 26 L 35 26 L 35 25 L 34 25 z M 33 25 L 32 25 L 32 26 L 32 27 L 32 28 L 33 28 L 33 27 L 33 26 L 33 25 z M 47 24 L 47 25 L 48 25 L 49 25 L 49 24 L 48 24 L 47 24 z M 49 25 L 49 26 L 49 27 L 50 27 L 50 26 L 50 25 L 49 25 z M 50 27 L 50 28 L 51 28 L 51 27 L 50 27 z M 49 27 L 48 27 L 47 27 L 47 28 L 48 28 L 49 28 L 49 27 z M 47 27 L 47 26 L 47 25 L 46 25 L 46 26 L 46 27 L 47 27 z M 65 24 L 65 25 L 64 25 L 64 26 L 65 26 L 66 26 L 66 25 L 67 25 L 67 24 L 66 24 L 65 24 z M 66 26 L 66 27 L 67 27 L 67 26 L 66 26 z M 66 27 L 65 27 L 64 27 L 64 28 L 65 28 L 66 28 L 66 27 z M 69 24 L 69 25 L 70 25 L 71 25 L 71 24 L 70 24 L 69 24 z M 71 25 L 71 26 L 71 27 L 72 27 L 72 26 L 72 25 L 71 25 z M 71 27 L 70 27 L 69 27 L 69 28 L 70 28 L 71 28 L 71 27 z M 69 27 L 69 26 L 69 25 L 68 25 L 68 26 L 68 27 L 69 27 z M 73 24 L 73 25 L 73 26 L 73 27 L 73 28 L 74 28 L 74 27 L 74 26 L 74 25 L 75 25 L 76 25 L 76 24 L 75 24 L 74 24 L 73 24 z M 76 25 L 76 26 L 76 27 L 76 28 L 77 28 L 77 27 L 77 26 L 77 25 L 76 25 z M 36 25 L 36 26 L 36 27 L 36 28 L 37 28 L 37 27 L 37 26 L 37 25 L 36 25 z M 62 25 L 62 26 L 62 27 L 62 28 L 63 28 L 63 27 L 63 26 L 63 25 L 62 25 z "
     style="fill:#ffffff;fill-opacity:1" />
</svg>
